<?xml version="1.0" encoding="utf-8"?>
<!-- Generator: Adobe Illustrator 23.0.0, SVG Export Plug-In . SVG Version: 6.00 Build 0)  -->
<svg version="1.0" id="Layer_1" xmlns="http://www.w3.org/2000/svg" xmlns:xlink="http://www.w3.org/1999/xlink" x="0px" y="0px"
	 viewBox="0 0 491.5 491.5" style="enable-background:new 0 0 491.5 491.5;" xml:space="preserve">
<g id="Layer_x0020_1">
	<path style="fill:#212121;" d="M86.4,116.2h318.7c9.7,0,18.5,4,24.8,10.3c6.4,6.4,10.3,15.2,10.3,24.8v188.9
		c0,9.7-4,18.5-10.3,24.8s-15.2,10.3-24.8,10.3H86.4c-9.7,0-18.5-4-24.8-10.3c-6.4-6.4-10.3-15.2-10.3-24.8V151.3
		c0-9.7,4-18.5,10.3-24.8C67.9,120.1,76.7,116.2,86.4,116.2L86.4,116.2z M405.1,131.5H86.4c-5.4,0-10.4,2.2-14,5.8
		c-3.6,3.6-5.8,8.5-5.8,14v188.9c0,5.4,2.2,10.4,5.8,14c3.6,3.6,8.5,5.8,14,5.8h318.7c5.4,0,10.4-2.2,14-5.8c3.6-3.6,5.8-8.5,5.8-14
		V151.3c0-5.4-2.2-10.4-5.8-14C415.5,133.7,410.6,131.5,405.1,131.5z"/>
	<path style="fill:#212121;" d="M230.3,268.6c1-1.9,0.3-4.2-1.6-5.2c-1.9-1-4.2-0.3-5.2,1.6c-4.9,9-7.2,19-7,30.4
		c0.2,11.2,2.9,23.6,8.2,37.4c0.8,2,3,3,4.9,2.2c2-0.8,3-3,2.2-4.9c-5-13-7.5-24.6-7.7-34.8C223.9,285.3,226,276.4,230.3,268.6
		L230.3,268.6z"/>
	<path style="fill:#212121;" d="M268.9,260.9c-1.9-1-4.2-0.2-5.2,1.7s-0.2,4.2,1.7,5.2c9.1,4.7,19.2,6.9,30.6,6.5
		c11.2-0.4,23.5-3.3,37.3-8.8c2-0.8,2.9-3,2.1-5c-0.8-2-3-2.9-5-2.1c-12.9,5.2-24.4,7.9-34.7,8.3C285.6,266.9,276.8,265,268.9,260.9
		L268.9,260.9z"/>
	<path style="fill:#212121;" d="M251.4,272.8c-0.6-2-2.8-3.1-4.8-2.5c-2,0.6-3.1,2.8-2.5,4.8c3.1,9.7,8.7,18.5,17,26.2
		c8.2,7.6,19,14.3,32.6,20.1c1.9,0.8,4.2-0.1,5-2c0.8-1.9-0.1-4.2-2-5c-12.8-5.5-22.9-11.7-30.4-18.7
		C259,288.9,254.1,281.3,251.4,272.8L251.4,272.8z"/>
	<path style="fill:#212121;" d="M218.7,251.4c2-0.6,3.1-2.8,2.5-4.8c-0.6-2-2.8-3.1-4.8-2.5c-9.7,3.1-18.5,8.7-26.2,17
		c-7.6,8.2-14.3,19-20.1,32.6c-0.8,1.9,0.1,4.2,2,5c1.9,0.8,4.2-0.1,5-2c5.5-12.8,11.7-22.9,18.7-30.4
		C202.6,259,210.2,254.1,218.7,251.4L218.7,251.4z"/>
	<path style="fill:#212121;" d="M261.3,222.9c-1,1.9-0.3,4.2,1.6,5.2c1.9,1,4.2,0.3,5.2-1.6c4.9-9,7.2-19,7-30.4
		c-0.2-11.2-2.9-23.6-8.2-37.4c-0.8-2-3-3-4.9-2.2c-2,0.8-3,3-2.2,4.9c5,13,7.5,24.6,7.7,34.8C267.6,206.3,265.5,215.1,261.3,222.9
		L261.3,222.9z"/>
	<path style="fill:#212121;" d="M222.6,230.7c1.9,1,4.2,0.2,5.2-1.7c1-1.9,0.2-4.2-1.7-5.2c-9.1-4.7-19.2-6.9-30.6-6.5
		c-11.2,0.4-23.5,3.3-37.3,8.8c-2,0.8-2.9,3-2.1,5c0.8,2,3,2.9,5,2.1c12.9-5.2,24.4-7.9,34.7-8.3
		C205.9,224.6,214.8,226.6,222.6,230.7L222.6,230.7z"/>
	<path style="fill:#212121;" d="M240.1,218.7c0.6,2,2.8,3.1,4.8,2.5s3.1-2.8,2.5-4.8c-3.1-9.7-8.7-18.5-17-26.2
		c-8.2-7.6-19-14.3-32.6-20.1c-1.9-0.8-4.2,0.1-5,2c-0.8,1.9,0.1,4.2,2,5c12.8,5.5,22.9,11.7,30.4,18.7
		C232.5,202.6,237.4,210.2,240.1,218.7L240.1,218.7z"/>
	<path style="fill:#212121;" d="M272.8,240.1c-2,0.6-3.1,2.8-2.5,4.8c0.6,2,2.8,3.1,4.8,2.5c9.7-3.1,18.5-8.7,26.2-17
		c7.6-8.2,14.3-19,20.1-32.6c0.8-1.9-0.1-4.2-2-5c-1.9-0.8-4.2,0.1-5,2c-5.5,12.8-11.7,22.9-18.7,30.4
		C288.9,232.5,281.3,237.4,272.8,240.1L272.8,240.1z"/>
	<path style="fill:#212121;" d="M245.8,146.4c27.4,0,52.3,11.1,70.3,29.1c18,18,29.1,42.8,29.1,70.3S334,298,316,316
		c-18,18-42.8,29.1-70.3,29.1S193.5,334,175.5,316c-18-18-29.1-42.8-29.1-70.3s11.1-52.3,29.1-70.3
		C193.5,157.5,218.3,146.4,245.8,146.4z M305.2,186.4c-15.2-15.2-36.2-24.6-59.4-24.6c-23.2,0-44.2,9.4-59.4,24.6
		c-15.2,15.2-24.6,36.2-24.6,59.4c0,23.2,9.4,44.2,24.6,59.4c15.2,15.2,36.2,24.6,59.4,24.6c23.2,0,44.2-9.4,59.4-24.6
		c15.2-15.2,24.6-36.2,24.6-59.4C329.8,222.6,320.4,201.6,305.2,186.4z"/>
	<path style="fill:#212121;" d="M61.4,191.8c-4.2,0-7.7,3.4-7.7,7.7c0,4.2,3.4,7.7,7.7,7.7h101.8c4.2,0,7.7-3.4,7.7-7.7
		c0-4.2-3.4-7.7-7.7-7.7C163.2,191.8,61.4,191.8,61.4,191.8z"/>
	<path style="fill:#212121;" d="M61.4,284.3c-4.2,0-7.7,3.4-7.7,7.7c0,4.2,3.4,7.7,7.7,7.7h101.8c4.2,0,7.7-3.4,7.7-7.7
		s-3.4-7.7-7.7-7.7C163.2,284.3,61.4,284.3,61.4,284.3z"/>
	<path style="fill:#212121;" d="M330.8,191.8c-4.2,0-7.7,3.4-7.7,7.7c0,4.2,3.4,7.7,7.7,7.7h101.8c4.2,0,7.7-3.4,7.7-7.7
		c0-4.2-3.4-7.7-7.7-7.7H330.8z"/>
	<path style="fill:#212121;" d="M330.8,284.3c-4.2,0-7.7,3.4-7.7,7.7c0,4.2,3.4,7.7,7.7,7.7h101.8c4.2,0,7.7-3.4,7.7-7.7
		s-3.4-7.7-7.7-7.7H330.8z"/>
	<path style="fill:#212121;" d="M100.8,146.3h29c3.6,0,6.8,1.5,9.2,3.8c2.3,2.3,3.8,5.6,3.8,9.2v0c0,3.6-1.5,6.8-3.8,9.2
		c-2.3,2.3-5.6,3.8-9.2,3.8h-29c-3.6,0-6.8-1.5-9.2-3.8c-2.3-2.3-3.8-5.6-3.8-9.2v0c0-3.6,1.5-6.8,3.8-9.2
		C94,147.7,97.2,146.3,100.8,146.3z M129.8,154h-29c-1.4,0-2.8,0.6-3.7,1.6c-1,1-1.6,2.3-1.6,3.7v0c0,1.4,0.6,2.8,1.6,3.7
		c1,1,2.3,1.6,3.7,1.6h29c1.4,0,2.8-0.6,3.7-1.6c1-1,1.6-2.3,1.6-3.7v0c0-1.4-0.6-2.8-1.6-3.7C132.6,154.6,131.3,154,129.8,154z"/>
	<path style="fill:#212121;" d="M396.5,146.3c3.6,0,6.8,1.5,9.2,3.8c2.3,2.3,3.8,5.6,3.8,9.2c0,3.6-1.5,6.8-3.8,9.2
		c-2.3,2.3-5.6,3.8-9.2,3.8c-3.6,0-6.8-1.5-9.2-3.8c-2.3-2.3-3.8-5.6-3.8-9.2c0-3.6,1.5-6.8,3.8-9.2
		C389.7,147.7,392.9,146.3,396.5,146.3z M400.2,155.5c-1-1-2.3-1.5-3.7-1.5c-1.5,0-2.8,0.6-3.7,1.5s-1.5,2.3-1.5,3.7
		c0,1.5,0.6,2.8,1.5,3.7s2.3,1.5,3.7,1.5c1.5,0,2.8-0.6,3.7-1.5s1.5-2.3,1.5-3.7C401.8,157.8,401.2,156.5,400.2,155.5z"/>
	<path style="fill:#212121;" d="M178.2,123.8c0,4.2,3.4,7.7,7.7,7.7s7.7-3.4,7.7-7.7v-6.4c0-3.6,1.5-6.9,3.8-9.2
		c2.4-2.4,5.6-3.8,9.2-3.8h78.2c3.6,0,6.9,1.5,9.2,3.8c2.4,2.4,3.8,5.6,3.8,9.2v6.4c0,4.2,3.4,7.7,7.7,7.7c4.2,0,7.7-3.4,7.7-7.7
		v-6.4c0-7.8-3.2-14.9-8.3-20.1c-5.2-5.2-12.3-8.3-20.1-8.3h-78.2c-7.8,0-14.9,3.2-20.1,8.3c-5.2,5.2-8.3,12.3-8.3,20.1L178.2,123.8
		L178.2,123.8z"/>
	<path style="fill:#212121;" d="M105.4,116.2h21.8V113h-21.8V116.2z M134.9,131.5H97.7c-4.2,0-7.7-3.4-7.7-7.7v-18.5
		c0-4.2,3.4-7.7,7.7-7.7h37.2c4.2,0,7.7,3.4,7.7,7.7v18.5C142.6,128.1,139.1,131.5,134.9,131.5z"/>
</g>
</svg>
