<?xml version="1.0" encoding="utf-8"?>
<!-- Generator: Adobe Illustrator 23.0.0, SVG Export Plug-In . SVG Version: 6.00 Build 0)  -->
<svg version="1.0" id="Layer_1" xmlns="http://www.w3.org/2000/svg" xmlns:xlink="http://www.w3.org/1999/xlink" x="0px" y="0px"
	 viewBox="0 0 2048 2048" style="enable-background:new 0 0 2048 2048;" xml:space="preserve">
<g id="Layer_x0020_1">
	<path style="fill:#212121;" d="M880.9,1238.2c-17.7,0-32,14.3-32,32s14.3,32,32,32h846.3c9,0,17.2,3.7,23.1,9.7s9.7,14.2,9.7,23.1
		v167.3c0,0.1-0.1,0.2-0.1,0.3s-0.2,0.1-0.3,0.1H657.8c-0.1,0-0.2-0.1-0.3-0.1s-0.1-0.2-0.1-0.3V1335c0-4.9,1.1-9.5,3-13.7
		c2.1-4.5,5.1-8.3,8.7-11.4c13.5-11.4,15.1-31.5,3.8-45c-11.4-13.5-31.5-15.1-45-3.8c-10.7,9.1-19.5,20.4-25.4,33.2
		c-5.8,12.4-9,26.2-9,40.7v167.3c0,17.7,7.2,33.9,18.9,45.5s27.8,18.9,45.5,18.9h1101.8c17.7,0,33.9-7.2,45.5-18.9
		c11.7-11.7,18.9-27.8,18.9-45.5V1335c0-26.7-10.9-50.9-28.4-68.4c-17.5-17.5-41.7-28.4-68.4-28.4H880.9L880.9,1238.2z"/>
	<path style="fill:#212121;" d="M1633.6,1284.1c7.7,15.9,26.7,22.5,42.6,14.9c15.9-7.7,22.5-26.7,14.9-42.6l-106-220.3l0.1,0
		c-5.2-10.7-15.6-17.3-26.7-18.1c-63.7-8.8-128.3-15.2-194-19.1c-66-3.9-133.4-5.2-202.4-3.9c-17.6,0.3-31.6,14.9-31.3,32.5
		c0.3,17.6,14.9,31.6,32.5,31.3c66.4-1.3,132.2,0,197.4,3.9c58.9,3.5,117,9.1,174.2,16.6L1633.6,1284.1L1633.6,1284.1z"/>
	<path style="fill:#212121;" d="M1574.9,1678.9h87.9v-112.3h-87.9V1678.9L1574.9,1678.9z M1664.4,1742.9h-91.1
		c-17.2,0-32.8-7-44.1-18.3c-11.3-11.3-18.3-26.9-18.3-44.1v-145.9c0-17.7,14.3-32,32-32h151.9c17.7,0,32,14.3,32,32v145.9
		c0,17.2-7,32.8-18.3,44.1C1697.2,1735.9,1681.6,1742.9,1664.4,1742.9L1664.4,1742.9z"/>
	<path style="fill:#212121;" d="M844.1,1742.9H753c-17.2,0-32.8-7-44.1-18.3c-11.3-11.3-18.3-26.9-18.3-44.1v-145.9
		c0-17.7,14.3-32,32-32h151.9c17.7,0,32,14.3,32,32v145.9c0,17.2-7,32.8-18.3,44.1C876.9,1735.9,861.3,1742.9,844.1,1742.9z
		 M754.6,1678.9h87.9v-112.3h-87.9V1678.9z"/>
	<path style="fill:#212121;" d="M1612.3,1333.7c19.7,0,37.5,8,50.5,20.9c12.9,12.9,20.9,30.8,20.9,50.5s-8,37.5-20.9,50.5
		c-12.9,12.9-30.8,20.9-50.5,20.9c-19.7,0-37.5-8-50.5-20.9s-20.9-30.8-20.9-50.5s8-37.5,20.9-50.5
		C1574.8,1341.6,1592.6,1333.7,1612.3,1333.7z M1628.8,1388.5c-4.2-4.2-10.1-6.8-16.5-6.8c-6.5,0-12.3,2.6-16.5,6.8
		c-4.2,4.2-6.8,10.1-6.8,16.5s2.6,12.3,6.8,16.5c4.2,4.2,10.1,6.8,16.5,6.8c6.5,0,12.3-2.6,16.5-6.8c4.2-4.2,6.8-10.1,6.8-16.5
		S1633.1,1392.7,1628.8,1388.5z"/>
	<path style="fill:#212121;" d="M805,1381.7c-6.5,0-12.3,2.6-16.5,6.8c-4.2,4.2-6.8,10.1-6.8,16.5s2.6,12.3,6.8,16.5
		s10.1,6.8,16.5,6.8c6.5,0,12.3-2.6,16.5-6.8c4.2-4.2,6.8-10.1,6.8-16.5s-2.6-12.3-6.8-16.5S811.5,1381.7,805,1381.7z M754.6,1354.6
		c12.9-12.9,30.8-20.9,50.5-20.9c19.7,0,37.5,8,50.5,20.9c12.9,12.9,20.9,30.8,20.9,50.5s-8,37.5-20.9,50.5
		c-12.9,12.9-30.8,20.9-50.5,20.9c-19.7,0-37.5-8-50.5-20.9s-20.9-30.8-20.9-50.5S741.7,1367.5,754.6,1354.6z"/>
	<path style="fill:#212121;" d="M1022.1,1341.8c-13.3,0-24,10.7-24,24s10.7,24,24,24h373.1c13.3,0,24-10.7,24-24s-10.7-24-24-24
		H1022.1z"/>
	<path style="fill:#212121;" d="M1022.1,1420.2c-13.3,0-24,10.7-24,24s10.7,24,24,24h373.1c13.3,0,24-10.7,24-24s-10.7-24-24-24
		H1022.1z"/>
	<path style="fill:#212121;" d="M734.1,305.1c140.8,0,268.4,57.1,360.7,149.4c92.3,92.3,149.4,219.8,149.4,360.7
		c0,140.8-57.1,268.4-149.4,360.7c-92.3,92.3-219.8,149.4-360.7,149.4s-268.4-57.1-360.7-149.4C281.1,1083.5,224,956,224,815.1
		c0-140.8,57.1-268.4,149.4-360.7C465.7,362.2,593.2,305.1,734.1,305.1L734.1,305.1z M1049.5,499.7
		C968.8,419,857.2,369.1,734.1,369.1S499.4,419,418.6,499.7C337.9,580.4,288,691.9,288,815.1s49.9,234.7,130.6,315.4
		c80.7,80.7,192.2,130.6,315.4,130.6s234.7-49.9,315.4-130.6c80.7-80.7,130.6-192.2,130.6-315.4S1130.2,580.4,1049.5,499.7
		L1049.5,499.7z"/>
	<path style="fill:#212121;" d="M394.8,807c-17.6,0.1-31.8,14.4-31.8,32s14.4,31.8,32,31.8l115.2-0.7l51.3,33.2l-0.1,0.1
		c14.6,9.4,34,5.5,43.8-8.8l69.3-83.4l62.1,103.3l27.4-16.4l-27.4,16.5c9.1,15.1,28.8,20,43.9,10.9c8.3-5,13.5-13.1,15-21.9
		L829,751.2l58.8,153.3l29.9-11.4l-29.9,11.5c6.3,16.5,24.8,24.8,41.3,18.4c4.3-1.7,8.1-4.1,11.1-7.2l47-40.2l86.1-0.6
		c17.6-0.1,31.8-14.4,31.8-32s-14.4-31.8-32-31.8l-95.2,0.7c-8.2-0.7-16.6,1.8-23.4,7.6l0.1,0.1l-23.2,19.9L850.9,630
		c-3.4-10.4-12.1-18.7-23.6-21.2c-17.3-3.8-34.3,7.2-38.1,24.4l31.3,6.8l-31.2-6.8L750,812.8l-42.6-70.8c-1.9-3.9-4.7-7.5-8.2-10.4
		c-13.6-11.3-33.8-9.4-45.1,4.2l0.1,0.1l-81.8,98.5l-32.9-21.3c-5.5-4.5-12.6-7.1-20.2-7.1l0,0.1L394.8,807L394.8,807z"/>
</g>
</svg>
