<?xml version="1.0" encoding="utf-8"?>
<!-- Generator: Adobe Illustrator 23.0.0, SVG Export Plug-In . SVG Version: 6.00 Build 0)  -->
<svg version="1.0" id="Layer_1" xmlns="http://www.w3.org/2000/svg" xmlns:xlink="http://www.w3.org/1999/xlink" x="0px" y="0px"
	 viewBox="0 0 491.5 491.5" style="enable-background:new 0 0 491.5 491.5;" xml:space="preserve">
<g id="Layer_x0020_1">
	<path style="fill:#212121;" d="M153.6,76c7.9,52.5,51,52.4,95.9,52.4c33.6-0.1,68-0.1,93.1,19.2l0,0l0,0l0,0
		c0.1,0.1,0.3,0.2,0.4,0.3c14.4,11,25.2,31.6,31.7,54.6c7.2,25.3,9.3,53.9,5.6,75.4c-5.3,30.7-11.7,54.3-20.3,72.3
		c-7.8,16.3-17.3,28.1-29.3,36.2c0.8,2.5,1.7,5.4,2.5,8.6c1.9,7.2,4,16.1,5.9,24.9l0,0c0.9,4.1-1.7,8.2-5.9,9.1
		c-0.8,0.2-1.6,0.2-2.3,0.1l-95.2,0v0c-3.6,0-6.7-2.5-7.5-5.9c-1.1-3.7-3.1-10.2-5.5-16.1c-1.7-4.1-3.6-7.9-5.2-9.9
		c-21.2,0.6-34.8,0.1-43-4.8c-9.8-5.9-11.5-15.2-6.6-31.1c-9.9-9.2-15.7-15.3-11-30.6c-5.2-2-11.3-5.1-13.9-9.5l0,0
		c-0.7-1.3-1.1-2.7-1-4c-0.1-7.3,7-17.7,13.9-27.8c5.1-7.5,10.2-14.2,10.1-14.5c-0.4-2-2.2-3.7-3.4-4.7c-0.7-0.6-1.3-1.1-1.8-1.7
		l0,0c-0.3-0.3-0.5-0.6-0.7-0.9c-5.3-6.8-3.5-17.6,1.3-29.1c3.7-8.7,9.2-18.1,14.4-25.8c-17.6-0.9-32.7-5-44.6-13.5
		c-15.7-11.1-25.4-29.1-27.2-56.2l0,0c-0.3-4.2,2.9-7.9,7.1-8.2c4.1-0.3,7.6,2.7,8.1,6.7c0.9,4.3,3.7,7,7.1,8.4
		c2.6,1,5.7,1.5,8.9,1.5c-1.8-13-2.6-26.3-2.4-38.5c0.3-15.2,2.2-29,5.6-38.9l7.3,2.5l-7.3-2.5c1.4-4,5.7-6.2,9.8-4.8
		C151.3,70.5,153.3,73.1,153.6,76L153.6,76z M249.4,143.7c-41.4,0.1-81.6,0.1-100.9-33.8c0,1.2-0.1,2.4-0.1,3.7
		c-0.3,13.6,0.8,28.6,3.3,42.9c0,0.1,0.1,0.3,0.1,0.4c0.9,4.2-1.8,8.2-5.9,9.1l-1.6-7.5l1.6,7.5c-0.2,0.1-0.6,0.1-1.2,0.2
		c-6.8,1.3-14,1.2-20.5-0.6c3.6,9.5,9,16.5,16,21.4c12.2,8.6,29.4,11.6,50.2,10.7c2.1-0.2,4.3,0.4,6.1,1.9c3.1,2.8,3.4,7.7,0.5,10.8
		l0,0c-5.3,5.8-15.6,21-21.3,34.2c-2.7,6.5-4.5,11.8-3.6,13.4c0.1,0.1,0.1,0.1,0.2,0.2l-5.7,5.2l5.7-5.2c0,0,0.2,0.2,0.5,0.5
		c2.7,2.4,7.2,6.2,8.5,13.6c1,5.8-5.7,15.6-12.6,25.8c-5.5,8.1-12.8,13.9-12.3,15.4l0.1,0.2l-6.7,3.8l6.7-3.8
		c1.2,2,9.3,4.1,11.6,4.6c0.7,0.1,1.4,0.3,2.1,0.6c3.9,1.7,5.6,6.2,3.9,10.1l0,0c-5.4,12.1-1.6,15.7,5.3,22.1
		c0.7,0.6,1.4,1.3,2.3,2.1c2.4,2,3.5,5.4,2.4,8.5l0,0c-3.8,10.7-4.4,15.9-1.6,17.6c5.1,3,17.3,3.2,36.8,2.6c1.6-0.2,3.2,0.1,4.7,1
		l0,0c5.3,3.1,9.6,10.5,12.9,18.3c1.8,4.4,3.4,8.8,4.6,12.6l80.6,0c-1.3-5.5-2.5-10.7-3.7-15c-1.6-5.9-2.8-10.1-3.4-11.2
		c-0.2-0.3-0.4-0.5-0.5-0.8c-2-3.7-0.7-8.4,3.1-10.4l3.7,6.7l-3.7-6.7c11.8-6.4,21.1-17,28.6-32.9c8-16.7,14-39.1,19.1-68.3
		c3.4-19.5,1.4-45.5-5.2-68.7c-5.7-20-14.6-37.7-26.2-46.5c-0.2-0.1-0.4-0.2-0.5-0.4l0,0C312.2,143.5,280.4,143.6,249.4,143.7
		L249.4,143.7z"/>
</g>
</svg>
