<?xml version="1.0" encoding="utf-8"?>
<!-- Generator: Adobe Illustrator 23.0.0, SVG Export Plug-In . SVG Version: 6.00 Build 0)  -->
<svg version="1.0" id="Layer_1" xmlns="http://www.w3.org/2000/svg" xmlns:xlink="http://www.w3.org/1999/xlink" x="0px" y="0px"
	 viewBox="0 0 2048 2048" style="enable-background:new 0 0 2048 2048;" xml:space="preserve">
<g id="Layer_x0020_1">
	<path style="fill:#212121;" d="M1301,506c16,27,29,55,38,86c8,29,13,60,13,92c0,92-41,192-99,269c-60,78-139,133-215,133
		s-154-55-212-132s-97-178-97-270c0-32,5-63,14-93c10-31,24-60,42-87l10-14h17h463h18l9,15L1301,506z M1277,609c-6-19-13-38-22-55
		H828c-10,18-19,37-25,56c-7,23-11,48-11,74c0,78,35,165,85,232c47,63,106,107,161,107s116-45,164-108c51-67,86-153,86-231
		c0-26-4-51-10-75H1277z"/>
	<path style="fill:#212121;" d="M1058,540c-28,42-68,81-112,113c-46,35-98,62-146,78c-2,1-5,31-9,68c-8,88-18,200-135,223
		c-112,22-180-94-180-94l-22-37l42-10c147-35,183-132,218-230c18-51,37-101,69-147l10-14h17h220h60l-34,50H1058z M908,602
		c20-15,39-31,55-48H827c-22,36-37,77-52,118l0,0c2-1,3-1,5-2c41-14,87-38,128-69V602z M728,793c0-4,1-7,1-11c-33,61-80,114-170,146
		c20,19,50,38,86,31C715,945,722,860,728,793z"/>
	<path style="fill:#212121;" d="M1162,554c14,18,30,35,47,50c29,27,61,48,90,62c-13-39-27-78-45-113h-92V554z M1166,651
		c-36-33-68-72-91-114l-26-47h54h170h18l9,16c28,46,45,97,62,148c33,98,65,195,178,228l36,11l-16,34c0,0-57,120-155,96
		s-107-136-113-223c-3-37-5-68-5-68c-39-16-82-44-120-80L1166,651z M1356,809c5,64,14,139,63,151c26,6,49-13,64-32
		C1422,901,1384,858,1356,809z"/>
	<path style="fill:#212121;" d="M760,306c92-34,184-50,277-50s186,17,278,50l25,9l-4,26l-28,186l-4,27h-28H798h-28l-4-27l-28-186
		l-4-26l24-9H760z M1037,319c-77,0-154,13-231,38l20,132h423l20-132C1191,332,1114,319,1037,319z"/>
	<path style="fill:#212121;" d="M1167,987c61,70,100,97,100,97l-37,52c0,0-45-32-111-107L1167,987z"/>
	<path style="fill:#212121;" d="M961,1029c-66,75-110,107-111,107l-37-52c0,0,38-27,100-97L961,1029z"/>
	<path style="fill:#212121;" d="M813,1036c41,53,80,92,119,116c37,23,72,34,107,33h1h1c35,1,71-10,107-33c39-25,79-63,119-116l10-14
		l17,1c7,0,12,0,18,1c40,0,79,0,137,60c47,48,85,106,111,170c25,63,39,131,39,200l0,0v121v15l-12,10c-76,61-162,109-257,142
		c-91,32-189,49-291,49s-201-17-291-49c-94-33-181-81-257-142l-12-10v-15v-121l0,0c0-69,14-138,39-200c26-64,64-122,111-170
		c58-60,98-60,137-60c5,0,11,0,18-1l17-1l10,14H813z M898,1206c-42-27-84-66-126-118h-4c-26,0-52,0-92,41c-41,42-74,93-97,149
		c-22,55-35,115-35,177l0,0v105c67,52,143,93,226,122c84,29,175,45,270,45s186-16,270-45c83-29,159-70,226-122v-105l0,0
		c0-61-12-121-35-177s-56-107-97-149c-40-41-66-41-92-41h-4c-42,53-84,92-126,118c-47,30-95,44-142,43C993,1250,945,1236,898,1206z"
		/>
	<polygon style="fill:#212121;" points="944,373 1136,373 1136,437 944,437 	"/>
	<polygon style="fill:#212121;" points="1008,501 1008,309 1072,309 1072,501 	"/>
</g>
</svg>
