<?xml version="1.0" encoding="utf-8"?>
<!-- Generator: Adobe Illustrator 23.0.0, SVG Export Plug-In . SVG Version: 6.00 Build 0)  -->
<svg version="1.0" id="Layer_1" xmlns="http://www.w3.org/2000/svg" xmlns:xlink="http://www.w3.org/1999/xlink" x="0px" y="0px"
	 viewBox="0 0 2048 2048" style="enable-background:new 0 0 2048 2048;" xml:space="preserve">
<g id="Layer_x0020_1">
	<g id="_324051840">
		<path id="_324053088" style="fill:#212121;" d="M1365.9,980.9c0,17.7,14.3,32,32,32s32-14.3,32-32V675.5c0-17.7-14.3-32-32-32H288
			c-17.7,0-32,14.3-32,32v997.2c0,17.7,14.3,32,32,32h937.4c17.7,0,32-14.3,32-32s-14.3-32-32-32H320V707.5h1045.9L1365.9,980.9
			L1365.9,980.9z"/>
		<path id="_324053256" style="fill:#212121;" d="M288,343.3h1109.9c17.7,0,32,14.3,32,32v300.2c0,17.7-14.3,32-32,32H288
			c-17.7,0-32-14.3-32-32V375.3C256,357.7,270.3,343.3,288,343.3z M1365.9,407.3H320v236.2h1045.9V407.3z"/>
		<path id="_324052704" style="fill:#212121;" d="M842.9,856.5c87.7,0,167.1,35.6,224.6,93c57.5,57.5,93,136.9,93,224.6
			c0,87.7-35.6,167.1-93,224.6c-57.5,57.5-136.9,93-224.6,93c-87.7,0-167.1-35.6-224.6-93c-57.5-57.5-93-136.9-93-224.6
			c0-87.7,35.6-167.1,93-224.6C675.8,892,755.2,856.5,842.9,856.5L842.9,856.5z M1022.3,994.7c-45.9-45.9-109.3-74.3-179.3-74.3
			c-70,0-133.4,28.4-179.3,74.3c-45.9,45.9-74.3,109.3-74.3,179.3c0,70,28.4,133.4,74.3,179.3c45.9,45.9,109.3,74.3,179.3,74.3
			c70,0,133.4-28.4,179.3-74.3c45.9-45.9,74.3-109.3,74.3-179.3C1096.6,1104.1,1068.2,1040.6,1022.3,994.7L1022.3,994.7z"/>
		<ellipse id="_324052680" style="fill-rule:evenodd;clip-rule:evenodd;fill:#212121;" cx="502" cy="525.4" rx="59.2" ry="59.2"/>
		<ellipse id="_324053136" style="fill-rule:evenodd;clip-rule:evenodd;fill:#212121;" cx="842.9" cy="525.4" rx="59.2" ry="59.2"/>
		
			<ellipse id="_324052248" style="fill-rule:evenodd;clip-rule:evenodd;fill:#212121;" cx="1183.9" cy="525.4" rx="59.2" ry="59.2"/>
		<path id="_324052152" style="fill:#212121;" d="M1306.7,1726.1h382.7c2.2,0,4.3,0.2,6.3,0.6c2.7,0.2,9.8,0,12.5-6.8l-19.1-80.4
			l0,0c-1.7-7-0.9-14,1.8-20.1c10.2-28,141.5-406.7-157.8-515.7h-212.1c-15.5,11.3-51.5,42.1-53.3,85.9
			c7.4,29.9,41.6,186.4-16.1,329.6C1248.1,1547.7,1230.3,1720.2,1306.7,1726.1L1306.7,1726.1z M1688,1790.1h-381.3h-0.1v0
			c-0.5,0-1,0-1.6,0l0-0.1c-146.6-7.3-120-252.8-116.5-280.6c0.2-3.6,1-7.2,2.4-10.6l0.1,0c53.7-129.3,20-273.6,14.6-294.7
			c-1.3-3.4-2-7.2-2-11c0-84.7,74.2-137.4,88.7-146.9c5.3-4,11.9-6.3,19.1-6.3h226.5c3.7-0.1,7.5,0.5,11.2,1.8l-10.5,30.2l10.5-30.1
			c348.4,121.2,227,525.8,204.5,592.2l18.2,76.8c1,3.7,1.4,7.6,1,11.6l-0.1,0C1765.4,1793,1704.2,1791.7,1688,1790.1L1688,1790.1z"
			/>
		<path id="_324052080" style="fill:#212121;" d="M1680.9,1493.8c-22,52.1-57.9,28.2-66.8,21.1c-1.3-0.9-2.5-2-3.7-3.3l17.7-16.2
			l-17.6,16.1c-23.8-26-82-120.2-108.9-201.7c-18.8-56.9-22.9-110.2,6.5-139.5c0.5-0.6,1.1-1.1,1.7-1.7l16.2,17.7l-16.1-17.7
			c32-29.2,72.5-10.7,82-5.7c0.9,0.4,1.7,0.9,2.5,1.4l0,0c57.9,36,83.8,92.1,93.1,153c8.7,56.8,2.6,117.5-4.6,168.7
			C1682.7,1488.7,1682.1,1491.3,1680.9,1493.8L1680.9,1493.8L1680.9,1493.8z M1636.9,1468.4c6-45.2,10.3-96.7,3-143.9
			c-7.4-48.2-27.1-92.1-70.8-119.3l-0.2-0.1l0,0l-0.3-0.2c-3.6-1.9-17.8-8.7-26.6-0.7l0,0c-0.2,0.2-0.4,0.3-0.6,0.5
			c-13.4,13.9-7.8,49.5,5.6,90.2C1569.2,1361.4,1612.4,1435.8,1636.9,1468.4L1636.9,1468.4z"/>
		<path id="_324052056" style="fill:#212121;" d="M1369.3,1039.8h106.9v-26.9h-106.9V1039.8z M1508.2,1103.8h-170.9
			c-17.7,0-32-14.3-32-32v-90.9c0-17.7,14.3-32,32-32h170.9c17.7,0,32,14.3,32,32v90.9C1540.2,1089.4,1525.8,1103.8,1508.2,1103.8z"
			/>
	</g>
</g>
</svg>
